HIERARCHY
ROOT Hips
{
	OFFSET 0.000000 0.000000 0.000000
	CHANNELS 6 Xposition Yposition Zposition Zrotation Xrotation Yrotation
	JOINT Spine
	{
		OFFSET 0.000000 -0.000000 0.081436
		CHANNELS 6 Xposition Yposition Zposition Zrotation Xrotation Yrotation
		JOINT Spine1
		{
			OFFSET 0.000000 -0.000000 0.206037
			CHANNELS 6 Xposition Yposition Zposition Zrotation Xrotation Yrotation
			JOINT Neck
			{
				OFFSET 0.000000 -0.000000 0.206037
				CHANNELS 6 Xposition Yposition Zposition Zrotation Xrotation Yrotation
				JOINT Head
				{
					OFFSET 0.000000 -0.000000 0.109243
					CHANNELS 6 Xposition Yposition Zposition Zrotation Xrotation Yrotation
					End Site
					{
						OFFSET 0.000000 -0.000000 0.248279
					}
				}
			}
			JOINT LeftShoulder
			{
				OFFSET 0.039631 0.002820 0.186820
				CHANNELS 6 Xposition Yposition Zposition Zrotation Xrotation Yrotation
				JOINT LeftArm
				{
					OFFSET 0.111855 0.000000 0.000000
					CHANNELS 6 Xposition Yposition Zposition Zrotation Xrotation Yrotation
					JOINT LeftForeArm
					{
						OFFSET 0.340751 0.000000 0.000000
						CHANNELS 6 Xposition Yposition Zposition Zrotation Xrotation Yrotation
						JOINT LeftHand
						{
							OFFSET 0.213779 0.000000 0.000000
							CHANNELS 6 Xposition Yposition Zposition Zrotation Xrotation Yrotation
							End Site
							{
								OFFSET 0.148968 0.000000 0.000000
							}
						}
					}
				}
			}
			JOINT RightShoulder
			{
				OFFSET -0.039679 0.002820 0.186820
				CHANNELS 6 Xposition Yposition Zposition Zrotation Xrotation Yrotation
				JOINT RightArm
				{
					OFFSET -0.111855 0.000000 0.000000
					CHANNELS 6 Xposition Yposition Zposition Zrotation Xrotation Yrotation
					JOINT RightForeArm
					{
						OFFSET -0.340751 0.000000 0.000000
						CHANNELS 6 Xposition Yposition Zposition Zrotation Xrotation Yrotation
						JOINT RightHand
						{
							OFFSET -0.213779 0.000000 0.000000
							CHANNELS 6 Xposition Yposition Zposition Zrotation Xrotation Yrotation
							End Site
							{
								OFFSET -0.148968 0.000000 0.000000
							}
						}
					}
				}
			}
		}
	}
	JOINT LeftUpLeg
	{
		OFFSET 0.099312 0.000000 0.000000
		CHANNELS 6 Xposition Yposition Zposition Zrotation Xrotation Yrotation
		JOINT LeftLeg
		{
			OFFSET 0.000000 0.000000 -0.476468
			CHANNELS 6 Xposition Yposition Zposition Zrotation Xrotation Yrotation
			JOINT LeftFoot
			{
				OFFSET 0.000000 0.000000 -0.378939
				CHANNELS 6 Xposition Yposition Zposition Zrotation Xrotation Yrotation
				JOINT LeftToeBase
				{
					OFFSET 0.000000 -0.148968 -0.064553
					CHANNELS 6 Xposition Yposition Zposition Zrotation Xrotation Yrotation
					End Site
					{
						OFFSET 0.000000 -0.039725 -0.000000
					}
				}
			}
		}
	}
	JOINT RightUpLeg
	{
		OFFSET -0.099312 0.000000 0.000000
		CHANNELS 6 Xposition Yposition Zposition Zrotation Xrotation Yrotation
		JOINT RightLeg
		{
			OFFSET 0.000000 0.000000 -0.476468
			CHANNELS 6 Xposition Yposition Zposition Zrotation Xrotation Yrotation
			JOINT RightFoot
			{
				OFFSET 0.000000 0.000000 -0.378939
				CHANNELS 6 Xposition Yposition Zposition Zrotation Xrotation Yrotation
				JOINT RightToeBase
				{
					OFFSET 0.000000 -0.148968 -0.064553
					CHANNELS 6 Xposition Yposition Zposition Zrotation Xrotation Yrotation
					End Site
					{
						OFFSET 0.000000 -0.039725 -0.000000
					}
				}
			}
		}
	}
}
MOTION
Frames: 4
Frame Time: 0.041667
0.153113 -0.332554 1.003541 86.253541 0.973079 -1.044122 0.000000 -0.000000 0.081436 0.079296 -9.525651 0.951153 0.000000 -0.000000 0.206037 0.378832 1.743243 0.039146 0.000000 -0.000000 0.206037 0.673866 21.280764 -3.585180 0.000000 -0.000000 0.109243 21.358080 7.665491 -0.112620 0.039631 0.002820 0.186820 8.541472 11.725495 1.628923 0.111855 -0.000000 0.000000 -39.020471 1.620795 66.897994 0.340751 0.000000 0.000000 -19.884725 2.532789 -14.376128 0.213779 -0.000000 0.000000 -2.242502 -9.531631 2.229709 -0.039679 0.002820 0.186820 0.183071 10.866501 4.203421 -0.111855 0.000000 -0.000000 41.847504 6.220169 -75.829648 -0.340751 0.000000 0.000000 11.556246 0.101213 1.000723 -0.213779 -0.000000 0.000000 -0.688201 -5.175374 7.862639 0.099312 -0.000000 0.000000 13.811479 0.295288 -4.543527 0.000000 0.000000 -0.476468 -1.690984 6.587135 0.864188 0.000000 0.000000 -0.378939 21.408745 -6.070389 2.513523 0.000000 -0.148968 -0.064553 -0.000002 0.000001 -0.000001 -0.099312 -0.000000 -0.000000 -1.036164 -1.565713 2.230323 -0.000000 0.000000 -0.476468 5.795184 17.843663 0.119462 -0.000000 0.000000 -0.378939 -17.983483 -16.388545 -8.290469 0.000000 -0.148968 -0.064553 -0.000000 -0.000000 -0.000000 
0.152465 -0.336835 1.003629 86.020605 0.667376 -1.325809 -0.000000 -0.000000 0.081436 0.083327 -9.228411 1.031855 0.000000 -0.000000 0.206037 0.655566 1.940042 -0.322018 0.000000 -0.000000 0.206037 0.697443 21.468179 -3.677420 0.000000 -0.000000 0.109243 21.501401 7.324791 -0.107828 0.039631 0.002820 0.186820 8.710936 11.931904 1.563066 0.111855 -0.000000 0.000000 -38.555216 2.105937 67.897585 0.340751 -0.000000 -0.000000 -20.206852 2.457785 -13.729700 0.213779 -0.000000 0.000000 -1.623564 -8.794656 2.372076 -0.039679 0.002820 0.186820 0.308742 11.100906 3.996347 -0.111855 -0.000000 0.000000 42.101481 6.336037 -75.479567 -0.340751 0.000000 -0.000000 11.798497 0.112923 1.093362 -0.213779 0.000000 0.000000 -0.838942 -4.981250 7.477858 0.099312 0.000000 -0.000000 14.071729 0.677970 -4.587845 -0.000000 0.000000 -0.476468 -1.488036 6.402680 0.858558 -0.000000 0.000000 -0.378939 21.310122 -5.685257 2.595066 -0.000000 -0.148968 -0.064553 -0.000002 0.000000 -0.000000 -0.099312 0.000000 0.000000 -0.217768 -1.047724 2.312095 0.000000 0.000000 -0.476468 5.658375 17.429564 -0.001952 -0.000000 0.000000 -0.378939 -18.115147 -16.548329 -8.047802 0.000000 -0.148968 -0.064553 0.000000 0.000001 0.000000 
0.150355 -0.340117 1.003305 86.138077 0.913754 -1.436820 0.000000 -0.000000 0.081436 0.057077 -9.263744 0.703944 0.000000 -0.000000 0.206037 0.685260 1.959303 -0.366092 -0.000000 -0.000000 0.206037 0.729965 21.570180 -3.830233 0.000000 0.000000 0.109243 21.699972 7.129265 -0.182913 0.039631 0.002820 0.186820 8.936709 12.180903 1.478697 0.111855 -0.000000 0.000000 -38.460669 2.463305 68.698644 0.340751 -0.000000 0.000000 -19.836435 2.285187 -13.014903 0.213779 -0.000000 0.000000 -1.459453 -7.629584 3.060518 -0.039679 0.002820 0.186820 0.488191 10.621917 4.222960 -0.111855 -0.000000 0.000000 42.279120 6.495522 -75.958595 -0.340751 -0.000000 -0.000000 11.850069 0.115116 1.109764 -0.213779 0.000000 0.000000 -0.811721 -4.831003 7.264394 0.099312 0.000000 0.000000 14.025850 0.227981 -4.536583 0.000000 0.000000 -0.476468 -1.496787 6.497903 0.723392 -0.000000 0.000000 -0.378939 21.178221 -5.522080 2.620304 0.000000 -0.148968 -0.064553 0.000002 0.000000 0.000001 -0.099312 -0.000000 0.000000 -0.114412 -1.332472 2.265855 0.000000 0.000000 -0.476468 6.004533 17.348242 -0.203400 -0.000000 0.000000 -0.378939 -18.385561 -16.742476 -7.869236 0.000000 -0.148968 -0.064553 -0.000000 0.000001 -0.000001 
0.148458 -0.343300 1.003244 86.332225 1.007730 -1.718401 -0.000000 -0.000000 0.081436 0.045732 -9.169309 0.569772 0.000000 -0.000000 0.206037 0.725611 2.047172 -0.415074 0.000000 -0.000000 0.206037 0.732098 21.586920 -3.838417 -0.000000 0.000000 0.109243 21.823996 6.960451 -0.481653 0.039631 0.002820 0.186820 9.162788 12.372417 1.440151 0.111855 -0.000000 0.000000 -38.098488 2.748091 69.231248 0.340751 -0.000000 0.000000 -19.376454 1.993829 -11.640209 0.213779 0.000000 0.000000 -1.525201 -6.237323 3.253051 -0.039679 0.002820 0.186820 0.505513 10.612237 4.067098 -0.111855 0.000000 -0.000000 42.723175 6.539419 -75.746019 -0.340751 0.000000 0.000000 11.973200 0.114442 1.091837 -0.213779 -0.000000 0.000000 -0.667701 -4.842199 7.183957 0.099312 -0.000000 -0.000000 13.734703 -0.023456 -4.360896 0.000000 0.000000 -0.476468 -1.377300 6.575790 0.621712 0.000000 0.000000 -0.378939 20.948284 -5.245189 2.416828 -0.000000 -0.148968 -0.064553 0.000001 -0.000001 0.000001 -0.099312 0.000000 -0.000000 -0.002308 -1.474341 2.396183 -0.000000 0.000000 -0.476468 6.117475 17.292267 -0.369882 -0.000000 0.000000 -0.378939 -18.551350 -16.912223 -7.701447 0.000000 -0.148968 -0.064553 0.000001 0.000001 0.000000 
